<mxfile host="app.diagrams.net" modified="2023-08-06T04:19:41.398Z" agent="Mozilla/5.0 (Macintosh; Intel Mac OS X 10_15_7) AppleWebKit/537.36 (KHTML, like Gecko) Chrome/114.0.0.0 Safari/537.36" etag="hihn3fTODCmMfQ0fZDPM" version="21.6.6" type="github">
  <diagram name="Page-1" id="BQyNfDQM9KaaFVRLigCi">
    <mxGraphModel dx="1306" dy="712" grid="1" gridSize="10" guides="1" tooltips="1" connect="1" arrows="1" fold="1" page="1" pageScale="1" pageWidth="827" pageHeight="1169" math="0" shadow="0">
      <root>
        <mxCell id="0" />
        <mxCell id="1" parent="0" />
      </root>
    </mxGraphModel>
  </diagram>
</mxfile>
